<svg width="987" height="381" xmlns="http://www.w3.org/2000/svg" xmlns:xlink="http://www.w3.org/1999/xlink" xml:space="preserve" overflow="hidden"><defs><filter id="fx0" x="-10%" y="-10%" width="120%" height="120%" filterUnits="userSpaceOnUse" primitiveUnits="userSpaceOnUse"><feComponentTransfer color-interpolation-filters="sRGB"><feFuncR type="discrete" tableValues="0 0"/><feFuncG type="discrete" tableValues="0 0"/><feFuncB type="discrete" tableValues="0 0"/><feFuncA type="linear" slope="0.4" intercept="0"/></feComponentTransfer><feGaussianBlur stdDeviation="7.63889 7.63889"/></filter><clipPath id="clip1"><rect x="2195" y="1651" width="987" height="381"/></clipPath><clipPath id="clip2"><rect x="-7" y="-7" width="397" height="397"/></clipPath><clipPath id="clip3"><rect x="0" y="0" width="383" height="383"/></clipPath><linearGradient x1="246.439" y1="36.3667" x2="139.292" y2="347.545" gradientUnits="userSpaceOnUse" spreadMethod="reflect" id="fill4"><stop offset="0" stop-color="#00B0F0" stop-opacity="0.501961"/><stop offset="0.49" stop-color="#00B0F0" stop-opacity="0.501961"/><stop offset="1" stop-color="#00B0F0" stop-opacity="0.501961"/></linearGradient><linearGradient x1="246.439" y1="36.3667" x2="139.292" y2="347.545" gradientUnits="userSpaceOnUse" spreadMethod="reflect" id="fill5"><stop offset="0" stop-color="#00B0F0" stop-opacity="0.501961"/><stop offset="0.49" stop-color="#00B0F0" stop-opacity="0.501961"/><stop offset="1" stop-color="#00B0F0" stop-opacity="0.501961"/></linearGradient><linearGradient x1="246.439" y1="36.3667" x2="139.292" y2="347.545" gradientUnits="userSpaceOnUse" spreadMethod="reflect" id="fill6"><stop offset="0" stop-color="#00B0F0" stop-opacity="0.501961"/><stop offset="0.49" stop-color="#00B0F0" stop-opacity="0.501961"/><stop offset="1" stop-color="#00B0F0" stop-opacity="0.501961"/></linearGradient><linearGradient x1="246.439" y1="36.3667" x2="139.292" y2="347.545" gradientUnits="userSpaceOnUse" spreadMethod="reflect" id="fill7"><stop offset="0" stop-color="#00B0F0" stop-opacity="0.501961"/><stop offset="0.49" stop-color="#00B0F0" stop-opacity="0.501961"/><stop offset="1" stop-color="#00B0F0" stop-opacity="0.501961"/></linearGradient><linearGradient x1="246.439" y1="36.3667" x2="139.292" y2="347.545" gradientUnits="userSpaceOnUse" spreadMethod="reflect" id="fill8"><stop offset="0" stop-color="#00B0F0" stop-opacity="0.501961"/><stop offset="0.49" stop-color="#00B0F0" stop-opacity="0.501961"/><stop offset="1" stop-color="#00B0F0" stop-opacity="0.501961"/></linearGradient><linearGradient x1="246.439" y1="36.3668" x2="139.292" y2="347.545" gradientUnits="userSpaceOnUse" spreadMethod="reflect" id="fill9"><stop offset="0" stop-color="#00B0F0" stop-opacity="0.501961"/><stop offset="0.49" stop-color="#00B0F0" stop-opacity="0.501961"/><stop offset="1" stop-color="#00B0F0" stop-opacity="0.501961"/></linearGradient><linearGradient x1="246.439" y1="36.3667" x2="139.292" y2="347.545" gradientUnits="userSpaceOnUse" spreadMethod="reflect" id="fill10"><stop offset="0" stop-color="#00B0F0" stop-opacity="0.501961"/><stop offset="0.49" stop-color="#00B0F0" stop-opacity="0.501961"/><stop offset="1" stop-color="#00B0F0" stop-opacity="0.501961"/></linearGradient><linearGradient x1="246.439" y1="36.3667" x2="139.292" y2="347.545" gradientUnits="userSpaceOnUse" spreadMethod="reflect" id="fill11"><stop offset="0" stop-color="#00B0F0" stop-opacity="0.501961"/><stop offset="0.49" stop-color="#00B0F0" stop-opacity="0.501961"/><stop offset="1" stop-color="#00B0F0" stop-opacity="0.501961"/></linearGradient><linearGradient x1="246.439" y1="36.3667" x2="139.292" y2="347.545" gradientUnits="userSpaceOnUse" spreadMethod="reflect" id="fill12"><stop offset="0" stop-color="#00B0F0" stop-opacity="0.501961"/><stop offset="0.49" stop-color="#00B0F0" stop-opacity="0.501961"/><stop offset="1" stop-color="#00B0F0" stop-opacity="0.501961"/></linearGradient><linearGradient x1="246.439" y1="36.3667" x2="139.292" y2="347.545" gradientUnits="userSpaceOnUse" spreadMethod="reflect" id="fill13"><stop offset="0" stop-color="#00B0F0" stop-opacity="0.501961"/><stop offset="0.49" stop-color="#00B0F0" stop-opacity="0.501961"/><stop offset="1" stop-color="#00B0F0" stop-opacity="0.501961"/></linearGradient><linearGradient x1="246.439" y1="36.3667" x2="139.292" y2="347.545" gradientUnits="userSpaceOnUse" spreadMethod="reflect" id="fill14"><stop offset="0" stop-color="#00B0F0" stop-opacity="0.501961"/><stop offset="0.49" stop-color="#00B0F0" stop-opacity="0.501961"/><stop offset="1" stop-color="#00B0F0" stop-opacity="0.501961"/></linearGradient><linearGradient x1="246.439" y1="36.3668" x2="139.292" y2="347.545" gradientUnits="userSpaceOnUse" spreadMethod="reflect" id="fill15"><stop offset="0" stop-color="#00B0F0" stop-opacity="0.501961"/><stop offset="0.49" stop-color="#00B0F0" stop-opacity="0.501961"/><stop offset="1" stop-color="#00B0F0" stop-opacity="0.501961"/></linearGradient><linearGradient x1="246.439" y1="36.3667" x2="139.292" y2="347.545" gradientUnits="userSpaceOnUse" spreadMethod="reflect" id="fill16"><stop offset="0" stop-color="#00B0F0" stop-opacity="0.501961"/><stop offset="0.49" stop-color="#00B0F0" stop-opacity="0.501961"/><stop offset="1" stop-color="#00B0F0" stop-opacity="0.501961"/></linearGradient><linearGradient x1="246.439" y1="36.3668" x2="139.292" y2="347.545" gradientUnits="userSpaceOnUse" spreadMethod="reflect" id="fill17"><stop offset="0" stop-color="#00B0F0" stop-opacity="0.501961"/><stop offset="0.49" stop-color="#00B0F0" stop-opacity="0.501961"/><stop offset="1" stop-color="#00B0F0" stop-opacity="0.501961"/></linearGradient><linearGradient x1="246.439" y1="36.3666" x2="139.292" y2="347.545" gradientUnits="userSpaceOnUse" spreadMethod="reflect" id="fill18"><stop offset="0" stop-color="#00B0F0" stop-opacity="0.501961"/><stop offset="0.49" stop-color="#00B0F0" stop-opacity="0.501961"/><stop offset="1" stop-color="#00B0F0" stop-opacity="0.501961"/></linearGradient><linearGradient x1="246.439" y1="36.3666" x2="139.292" y2="347.545" gradientUnits="userSpaceOnUse" spreadMethod="reflect" id="fill19"><stop offset="0" stop-color="#00B0F0" stop-opacity="0.501961"/><stop offset="0.49" stop-color="#00B0F0" stop-opacity="0.501961"/><stop offset="1" stop-color="#00B0F0" stop-opacity="0.501961"/></linearGradient><linearGradient x1="246.439" y1="36.3668" x2="139.292" y2="347.545" gradientUnits="userSpaceOnUse" spreadMethod="reflect" id="fill20"><stop offset="0" stop-color="#00B0F0" stop-opacity="0.501961"/><stop offset="0.49" stop-color="#00B0F0" stop-opacity="0.501961"/><stop offset="1" stop-color="#00B0F0" stop-opacity="0.501961"/></linearGradient><linearGradient x1="246.439" y1="36.3667" x2="139.292" y2="347.545" gradientUnits="userSpaceOnUse" spreadMethod="reflect" id="fill21"><stop offset="0" stop-color="#00B0F0" stop-opacity="0.501961"/><stop offset="0.49" stop-color="#00B0F0" stop-opacity="0.501961"/><stop offset="1" stop-color="#00B0F0" stop-opacity="0.501961"/></linearGradient><linearGradient x1="246.439" y1="36.3667" x2="139.292" y2="347.545" gradientUnits="userSpaceOnUse" spreadMethod="reflect" id="fill22"><stop offset="0" stop-color="#00B0F0" stop-opacity="0.501961"/><stop offset="0.49" stop-color="#00B0F0" stop-opacity="0.501961"/><stop offset="1" stop-color="#00B0F0" stop-opacity="0.501961"/></linearGradient><linearGradient x1="246.439" y1="36.3668" x2="139.292" y2="347.545" gradientUnits="userSpaceOnUse" spreadMethod="reflect" id="fill23"><stop offset="0" stop-color="#00B0F0" stop-opacity="0.501961"/><stop offset="0.49" stop-color="#00B0F0" stop-opacity="0.501961"/><stop offset="1" stop-color="#00B0F0" stop-opacity="0.501961"/></linearGradient><linearGradient x1="246.439" y1="36.3668" x2="139.292" y2="347.545" gradientUnits="userSpaceOnUse" spreadMethod="reflect" id="fill24"><stop offset="0" stop-color="#00B0F0" stop-opacity="0.501961"/><stop offset="0.49" stop-color="#00B0F0" stop-opacity="0.501961"/><stop offset="1" stop-color="#00B0F0" stop-opacity="0.501961"/></linearGradient><linearGradient x1="246.439" y1="36.3666" x2="139.292" y2="347.545" gradientUnits="userSpaceOnUse" spreadMethod="reflect" id="fill25"><stop offset="0" stop-color="#00B0F0" stop-opacity="0.501961"/><stop offset="0.49" stop-color="#00B0F0" stop-opacity="0.501961"/><stop offset="1" stop-color="#00B0F0" stop-opacity="0.501961"/></linearGradient><linearGradient x1="246.439" y1="36.3667" x2="139.292" y2="347.545" gradientUnits="userSpaceOnUse" spreadMethod="reflect" id="fill26"><stop offset="0" stop-color="#00B0F0" stop-opacity="0.501961"/><stop offset="0.49" stop-color="#00B0F0" stop-opacity="0.501961"/><stop offset="1" stop-color="#00B0F0" stop-opacity="0.501961"/></linearGradient><linearGradient x1="246.439" y1="36.3667" x2="139.292" y2="347.545" gradientUnits="userSpaceOnUse" spreadMethod="reflect" id="fill27"><stop offset="0" stop-color="#00B0F0" stop-opacity="0.501961"/><stop offset="0.49" stop-color="#00B0F0" stop-opacity="0.501961"/><stop offset="1" stop-color="#00B0F0" stop-opacity="0.501961"/></linearGradient><linearGradient x1="246.439" y1="36.3667" x2="139.292" y2="347.545" gradientUnits="userSpaceOnUse" spreadMethod="reflect" id="fill28"><stop offset="0" stop-color="#00B0F0" stop-opacity="0.501961"/><stop offset="0.49" stop-color="#00B0F0" stop-opacity="0.501961"/><stop offset="1" stop-color="#00B0F0" stop-opacity="0.501961"/></linearGradient><linearGradient x1="246.439" y1="36.3667" x2="139.292" y2="347.545" gradientUnits="userSpaceOnUse" spreadMethod="reflect" id="fill29"><stop offset="0" stop-color="#00B0F0" stop-opacity="0.501961"/><stop offset="0.49" stop-color="#00B0F0" stop-opacity="0.501961"/><stop offset="1" stop-color="#00B0F0" stop-opacity="0.501961"/></linearGradient><linearGradient x1="246.439" y1="36.3668" x2="139.292" y2="347.545" gradientUnits="userSpaceOnUse" spreadMethod="reflect" id="fill30"><stop offset="0" stop-color="#00B0F0" stop-opacity="0.501961"/><stop offset="0.49" stop-color="#00B0F0" stop-opacity="0.501961"/><stop offset="1" stop-color="#00B0F0" stop-opacity="0.501961"/></linearGradient><linearGradient x1="246.439" y1="36.3668" x2="139.292" y2="347.545" gradientUnits="userSpaceOnUse" spreadMethod="reflect" id="fill31"><stop offset="0" stop-color="#00B0F0" stop-opacity="0.501961"/><stop offset="0.49" stop-color="#00B0F0" stop-opacity="0.501961"/><stop offset="1" stop-color="#00B0F0" stop-opacity="0.501961"/></linearGradient><linearGradient x1="246.439" y1="36.3668" x2="139.292" y2="347.545" gradientUnits="userSpaceOnUse" spreadMethod="reflect" id="fill32"><stop offset="0" stop-color="#00B0F0" stop-opacity="0.501961"/><stop offset="0.49" stop-color="#00B0F0" stop-opacity="0.501961"/><stop offset="1" stop-color="#00B0F0" stop-opacity="0.501961"/></linearGradient><linearGradient x1="2439.36" y1="1689.41" x2="2334.32" y2="1994.48" gradientUnits="userSpaceOnUse" spreadMethod="reflect" id="fill33"><stop offset="0" stop-color="#00B0F0" stop-opacity="0.501961"/><stop offset="0.49" stop-color="#00B0F0" stop-opacity="0.501961"/><stop offset="1" stop-color="#00B0F0" stop-opacity="0.501961"/></linearGradient><linearGradient x1="2439.36" y1="1689.41" x2="2334.32" y2="1994.48" gradientUnits="userSpaceOnUse" spreadMethod="reflect" id="fill34"><stop offset="0" stop-color="#00B0F0" stop-opacity="0.501961"/><stop offset="0.49" stop-color="#00B0F0" stop-opacity="0.501961"/><stop offset="1" stop-color="#00B0F0" stop-opacity="0.501961"/></linearGradient><linearGradient x1="2439.36" y1="1689.41" x2="2334.32" y2="1994.48" gradientUnits="userSpaceOnUse" spreadMethod="reflect" id="fill35"><stop offset="0" stop-color="#00B0F0" stop-opacity="0.501961"/><stop offset="0.49" stop-color="#00B0F0" stop-opacity="0.501961"/><stop offset="1" stop-color="#00B0F0" stop-opacity="0.501961"/></linearGradient><linearGradient x1="2439.36" y1="1689.41" x2="2334.32" y2="1994.48" gradientUnits="userSpaceOnUse" spreadMethod="reflect" id="fill36"><stop offset="0" stop-color="#00B0F0" stop-opacity="0.501961"/><stop offset="0.49" stop-color="#00B0F0" stop-opacity="0.501961"/><stop offset="1" stop-color="#00B0F0" stop-opacity="0.501961"/></linearGradient><linearGradient x1="2439.36" y1="1689.41" x2="2334.32" y2="1994.48" gradientUnits="userSpaceOnUse" spreadMethod="reflect" id="fill37"><stop offset="0" stop-color="#00B0F0" stop-opacity="0.501961"/><stop offset="0.49" stop-color="#00B0F0" stop-opacity="0.501961"/><stop offset="1" stop-color="#00B0F0" stop-opacity="0.501961"/></linearGradient><linearGradient x1="2439.36" y1="1689.41" x2="2334.32" y2="1994.48" gradientUnits="userSpaceOnUse" spreadMethod="reflect" id="fill38"><stop offset="0" stop-color="#00B0F0" stop-opacity="0.501961"/><stop offset="0.49" stop-color="#00B0F0" stop-opacity="0.501961"/><stop offset="1" stop-color="#00B0F0" stop-opacity="0.501961"/></linearGradient><linearGradient x1="2439.36" y1="1689.41" x2="2334.32" y2="1994.48" gradientUnits="userSpaceOnUse" spreadMethod="reflect" id="fill39"><stop offset="0" stop-color="#00B0F0" stop-opacity="0.501961"/><stop offset="0.49" stop-color="#00B0F0" stop-opacity="0.501961"/><stop offset="1" stop-color="#00B0F0" stop-opacity="0.501961"/></linearGradient><linearGradient x1="2439.36" y1="1689.41" x2="2334.32" y2="1994.48" gradientUnits="userSpaceOnUse" spreadMethod="reflect" id="fill40"><stop offset="0" stop-color="#00B0F0" stop-opacity="0.501961"/><stop offset="0.49" stop-color="#00B0F0" stop-opacity="0.501961"/><stop offset="1" stop-color="#00B0F0" stop-opacity="0.501961"/></linearGradient><linearGradient x1="2439.36" y1="1689.41" x2="2334.32" y2="1994.48" gradientUnits="userSpaceOnUse" spreadMethod="reflect" id="fill41"><stop offset="0" stop-color="#00B0F0" stop-opacity="0.501961"/><stop offset="0.49" stop-color="#00B0F0" stop-opacity="0.501961"/><stop offset="1" stop-color="#00B0F0" stop-opacity="0.501961"/></linearGradient><linearGradient x1="2439.36" y1="1689.41" x2="2334.32" y2="1994.48" gradientUnits="userSpaceOnUse" spreadMethod="reflect" id="fill42"><stop offset="0" stop-color="#00B0F0" stop-opacity="0.501961"/><stop offset="0.49" stop-color="#00B0F0" stop-opacity="0.501961"/><stop offset="1" stop-color="#00B0F0" stop-opacity="0.501961"/></linearGradient><linearGradient x1="2439.36" y1="1689.41" x2="2334.32" y2="1994.48" gradientUnits="userSpaceOnUse" spreadMethod="reflect" id="fill43"><stop offset="0" stop-color="#00B0F0" stop-opacity="0.501961"/><stop offset="0.49" stop-color="#00B0F0" stop-opacity="0.501961"/><stop offset="1" stop-color="#00B0F0" stop-opacity="0.501961"/></linearGradient><linearGradient x1="2439.36" y1="1689.41" x2="2334.32" y2="1994.48" gradientUnits="userSpaceOnUse" spreadMethod="reflect" id="fill44"><stop offset="0" stop-color="#00B0F0" stop-opacity="0.501961"/><stop offset="0.49" stop-color="#00B0F0" stop-opacity="0.501961"/><stop offset="1" stop-color="#00B0F0" stop-opacity="0.501961"/></linearGradient><linearGradient x1="2439.36" y1="1689.41" x2="2334.32" y2="1994.48" gradientUnits="userSpaceOnUse" spreadMethod="reflect" id="fill45"><stop offset="0" stop-color="#00B0F0" stop-opacity="0.501961"/><stop offset="0.49" stop-color="#00B0F0" stop-opacity="0.501961"/><stop offset="1" stop-color="#00B0F0" stop-opacity="0.501961"/></linearGradient><linearGradient x1="2439.36" y1="1689.41" x2="2334.32" y2="1994.48" gradientUnits="userSpaceOnUse" spreadMethod="reflect" id="fill46"><stop offset="0" stop-color="#00B0F0" stop-opacity="0.501961"/><stop offset="0.49" stop-color="#00B0F0" stop-opacity="0.501961"/><stop offset="1" stop-color="#00B0F0" stop-opacity="0.501961"/></linearGradient><linearGradient x1="2439.36" y1="1689.41" x2="2334.32" y2="1994.48" gradientUnits="userSpaceOnUse" spreadMethod="reflect" id="fill47"><stop offset="0" stop-color="#00B0F0" stop-opacity="0.501961"/><stop offset="0.49" stop-color="#00B0F0" stop-opacity="0.501961"/><stop offset="1" stop-color="#00B0F0" stop-opacity="0.501961"/></linearGradient><linearGradient x1="2439.36" y1="1689.41" x2="2334.32" y2="1994.48" gradientUnits="userSpaceOnUse" spreadMethod="reflect" id="fill48"><stop offset="0" stop-color="#00B0F0" stop-opacity="0.501961"/><stop offset="0.49" stop-color="#00B0F0" stop-opacity="0.501961"/><stop offset="1" stop-color="#00B0F0" stop-opacity="0.501961"/></linearGradient><linearGradient x1="2439.36" y1="1689.41" x2="2334.32" y2="1994.48" gradientUnits="userSpaceOnUse" spreadMethod="reflect" id="fill49"><stop offset="0" stop-color="#00B0F0" stop-opacity="0.501961"/><stop offset="0.49" stop-color="#00B0F0" stop-opacity="0.501961"/><stop offset="1" stop-color="#00B0F0" stop-opacity="0.501961"/></linearGradient><linearGradient x1="2439.36" y1="1689.41" x2="2334.32" y2="1994.48" gradientUnits="userSpaceOnUse" spreadMethod="reflect" id="fill50"><stop offset="0" stop-color="#00B0F0" stop-opacity="0.501961"/><stop offset="0.49" stop-color="#00B0F0" stop-opacity="0.501961"/><stop offset="1" stop-color="#00B0F0" stop-opacity="0.501961"/></linearGradient><linearGradient x1="2439.36" y1="1689.41" x2="2334.32" y2="1994.48" gradientUnits="userSpaceOnUse" spreadMethod="reflect" id="fill51"><stop offset="0" stop-color="#00B0F0" stop-opacity="0.501961"/><stop offset="0.49" stop-color="#00B0F0" stop-opacity="0.501961"/><stop offset="1" stop-color="#00B0F0" stop-opacity="0.501961"/></linearGradient><linearGradient x1="2439.36" y1="1689.41" x2="2334.32" y2="1994.48" gradientUnits="userSpaceOnUse" spreadMethod="reflect" id="fill52"><stop offset="0" stop-color="#00B0F0" stop-opacity="0.501961"/><stop offset="0.49" stop-color="#00B0F0" stop-opacity="0.501961"/><stop offset="1" stop-color="#00B0F0" stop-opacity="0.501961"/></linearGradient><linearGradient x1="2439.36" y1="1689.41" x2="2334.32" y2="1994.48" gradientUnits="userSpaceOnUse" spreadMethod="reflect" id="fill53"><stop offset="0" stop-color="#00B0F0" stop-opacity="0.501961"/><stop offset="0.49" stop-color="#00B0F0" stop-opacity="0.501961"/><stop offset="1" stop-color="#00B0F0" stop-opacity="0.501961"/></linearGradient><linearGradient x1="2439.36" y1="1689.41" x2="2334.32" y2="1994.48" gradientUnits="userSpaceOnUse" spreadMethod="reflect" id="fill54"><stop offset="0" stop-color="#00B0F0" stop-opacity="0.501961"/><stop offset="0.49" stop-color="#00B0F0" stop-opacity="0.501961"/><stop offset="1" stop-color="#00B0F0" stop-opacity="0.501961"/></linearGradient><linearGradient x1="2439.36" y1="1689.41" x2="2334.32" y2="1994.48" gradientUnits="userSpaceOnUse" spreadMethod="reflect" id="fill55"><stop offset="0" stop-color="#00B0F0" stop-opacity="0.501961"/><stop offset="0.49" stop-color="#00B0F0" stop-opacity="0.501961"/><stop offset="1" stop-color="#00B0F0" stop-opacity="0.501961"/></linearGradient><linearGradient x1="2439.36" y1="1689.41" x2="2334.32" y2="1994.48" gradientUnits="userSpaceOnUse" spreadMethod="reflect" id="fill56"><stop offset="0" stop-color="#00B0F0" stop-opacity="0.501961"/><stop offset="0.49" stop-color="#00B0F0" stop-opacity="0.501961"/><stop offset="1" stop-color="#00B0F0" stop-opacity="0.501961"/></linearGradient><linearGradient x1="2439.36" y1="1689.41" x2="2334.32" y2="1994.48" gradientUnits="userSpaceOnUse" spreadMethod="reflect" id="fill57"><stop offset="0" stop-color="#00B0F0" stop-opacity="0.501961"/><stop offset="0.49" stop-color="#00B0F0" stop-opacity="0.501961"/><stop offset="1" stop-color="#00B0F0" stop-opacity="0.501961"/></linearGradient><linearGradient x1="2439.36" y1="1689.41" x2="2334.32" y2="1994.48" gradientUnits="userSpaceOnUse" spreadMethod="reflect" id="fill58"><stop offset="0" stop-color="#00B0F0" stop-opacity="0.501961"/><stop offset="0.49" stop-color="#00B0F0" stop-opacity="0.501961"/><stop offset="1" stop-color="#00B0F0" stop-opacity="0.501961"/></linearGradient><linearGradient x1="2439.36" y1="1689.41" x2="2334.32" y2="1994.48" gradientUnits="userSpaceOnUse" spreadMethod="reflect" id="fill59"><stop offset="0" stop-color="#00B0F0" stop-opacity="0.501961"/><stop offset="0.49" stop-color="#00B0F0" stop-opacity="0.501961"/><stop offset="1" stop-color="#00B0F0" stop-opacity="0.501961"/></linearGradient><linearGradient x1="2439.36" y1="1689.41" x2="2334.32" y2="1994.48" gradientUnits="userSpaceOnUse" spreadMethod="reflect" id="fill60"><stop offset="0" stop-color="#00B0F0" stop-opacity="0.501961"/><stop offset="0.49" stop-color="#00B0F0" stop-opacity="0.501961"/><stop offset="1" stop-color="#00B0F0" stop-opacity="0.501961"/></linearGradient><linearGradient x1="2439.36" y1="1689.41" x2="2334.32" y2="1994.48" gradientUnits="userSpaceOnUse" spreadMethod="reflect" id="fill61"><stop offset="0" stop-color="#00B0F0" stop-opacity="0.501961"/><stop offset="0.49" stop-color="#00B0F0" stop-opacity="0.501961"/><stop offset="1" stop-color="#00B0F0" stop-opacity="0.501961"/></linearGradient></defs><g clip-path="url(#clip1)" transform="translate(-2195 -1651)"><path d="M2742.53 1805.73C2740.65 1809.66 2737.47 1818.19 2732.99 1831.31 2728.15 1845.23 2725.73 1853.4 2725.73 1855.81 2725.73 1857.41 2728.42 1858.31 2733.79 1858.48 2736.57 1858.66 2741.14 1858.75 2747.5 1858.75 2753.41 1858.75 2756.68 1858.04 2757.31 1856.61 2757.49 1856.16 2757.58 1855.54 2757.58 1854.73 2757.58 1851.79 2755.52 1843.67 2751.4 1830.37 2747.37 1817.52 2744.41 1809.31 2742.53 1805.73ZM2927.73 1803.59C2930.24 1803.59 2934.07 1803.86 2939.22 1804.4 2944.37 1804.93 2948.24 1805.2 2950.84 1805.2 2953.44 1805.2 2957.34 1804.98 2962.53 1804.53 2967.73 1804.08 2971.63 1803.86 2974.22 1803.86 2976.37 1803.86 2977.45 1804.75 2977.45 1806.54 2977.45 1806.9 2977.36 1807.74 2977.18 1809.08 2975.21 1826.49 2974.22 1846.66 2974.22 1869.6 2974.22 1876.11 2974.36 1885.82 2974.63 1898.71 2974.9 1911.61 2975.03 1921.27 2975.03 1927.7 2975.03 1929.57 2973.91 1930.69 2971.67 1931.05 2968.62 1931.58 2961.77 1931.85 2951.11 1931.85 2940.36 1931.85 2933.46 1931.58 2930.42 1931.05 2928.45 1930.69 2927.24 1930.11 2926.79 1929.31 2926.61 1928.95 2926.52 1927.61 2926.52 1925.29 2926.52 1919.13 2926.65 1909.87 2926.92 1897.51 2927.19 1885.15 2927.33 1875.84 2927.33 1869.6 2927.33 1844.25 2926.34 1824.08 2924.37 1809.08 2924.19 1807.65 2924.1 1806.72 2924.1 1806.27 2924.1 1804.49 2925.31 1803.59 2927.73 1803.59ZM3162.92 1791.54C3164.35 1791.54 3167.89 1796.34 3173.53 1805.94 3179.18 1815.53 3182 1821.13 3182 1822.74 3182 1823.63 3181.33 1824.84 3179.98 1826.35 3177.48 1825.73 3174.97 1825.42 3172.46 1825.42 3167.17 1825.42 3162.74 1826.58 3159.16 1828.9 3154.86 1831.57 3152.71 1835.37 3152.71 1840.28 3152.71 1843.4 3154.99 1847.37 3159.56 1852.19 3166.46 1859.42 3170.71 1864.29 3172.32 1866.78 3176.89 1873.57 3179.18 1880.84 3179.18 1888.61 3179.18 1893.16 3178.28 1897.98 3176.49 1903.07 3174.43 1908.69 3171.83 1912.79 3168.7 1915.38 3162.07 1921.09 3154.32 1925.91 3145.45 1929.84 3135.86 1933.95 3127.04 1936 3118.98 1936 3117.18 1936 3113.18 1931.16 3106.95 1921.47 3100.72 1911.79 3097.61 1905.88 3097.61 1903.73 3097.61 1902.93 3098.1 1902.44 3099.09 1902.26 3105.36 1901.1 3111.68 1899.94 3118.04 1898.78 3125.92 1896.28 3129.86 1892.18 3129.86 1886.46 3129.86 1882.54 3127.58 1877.99 3123.01 1872.81 3114.86 1863.79 3110.6 1859.02 3110.24 1858.48 3105.67 1852.06 3103.39 1845.27 3103.39 1838.13 3103.39 1824.75 3110.2 1813.37 3123.81 1803.99 3136 1795.69 3149.03 1791.54 3162.92 1791.54ZM3008.25 1757.4C3010.67 1757.4 3014.12 1757.94 3018.6 1759.01 3023.7 1760.17 3027.24 1760.84 3029.21 1761.02 3033.78 1761.64 3040.68 1762.49 3049.91 1763.56 3052.15 1763.74 3053.27 1764.5 3053.27 1765.84 3053.27 1769.41 3052.97 1774.81 3052.39 1782.04 3051.81 1789.27 3051.52 1794.71 3051.52 1798.37 3051.52 1802.75 3052.82 1804.93 3055.42 1804.93 3058.55 1804.93 3063.3 1804.8 3069.66 1804.53 3076.02 1804.26 3080.81 1804.13 3084.04 1804.13 3086.01 1804.13 3086.99 1804.8 3086.99 1806.14 3086.99 1808.19 3086.77 1811.27 3086.32 1815.37 3085.87 1819.48 3085.65 1822.56 3085.65 1824.61 3085.65 1826.75 3085.7 1829.88 3085.78 1833.98 3085.87 1838.09 3085.92 1841.21 3085.92 1843.36 3085.92 1845.23 3084.62 1846.17 3082.02 1846.17 3080.23 1846.17 3077.23 1846.1 3073.02 1845.97 3068.81 1845.83 3065.81 1845.76 3064.02 1845.76L3053.94 1845.76C3052.59 1845.76 3051.92 1847.73 3051.92 1851.66 3051.92 1853.8 3051.92 1856.97 3051.92 1861.16 3052.01 1865.45 3052.06 1868.61 3052.06 1870.67 3052.06 1878.16 3052.91 1883.34 3054.61 1886.2 3057.03 1890.03 3061.78 1891.95 3068.85 1891.95 3071.09 1891.95 3074.3 1891.44 3078.46 1890.41 3082.63 1889.39 3085.56 1888.87 3087.26 1888.87 3089.14 1888.87 3090.08 1889.86 3090.08 1891.82 3090.08 1894.5 3089.75 1898.56 3089.08 1904 3088.41 1909.45 3088.07 1913.44 3088.07 1915.98 3088.07 1918.53 3087.8 1920.16 3087.26 1920.87 3086.73 1921.59 3085.25 1922.61 3082.83 1923.95 3071.27 1930.29 3058.46 1933.46 3044.4 1933.46 3018.51 1933.46 3005.56 1923.59 3005.56 1903.87 3005.56 1897.98 3005.78 1889.12 3006.23 1877.29 3006.68 1865.47 3006.9 1856.61 3006.9 1850.72 3006.9 1846.79 3004.62 1844.83 3000.05 1844.83 2999.69 1844.83 2999.11 1844.83 2998.3 1844.83 2997.5 1844.92 2996.92 1844.96 2996.56 1844.96 2993.15 1844.96 2991.45 1843.76 2991.45 1841.35 2991.45 1839.92 2991.56 1837.73 2991.79 1834.79 2992.01 1831.84 2992.12 1829.65 2992.12 1828.23 2992.12 1826.35 2992.01 1823.5 2991.79 1819.66 2991.56 1815.82 2991.45 1812.96 2991.45 1811.09 2991.45 1809.31 2994.32 1808.32 3000.05 1808.15 3003.28 1808.06 3005.02 1807.16 3005.29 1805.47 3005.83 1802.08 3006.01 1796.72 3005.83 1789.4 3005.47 1777.89 3005.29 1772.4 3005.29 1772.93 3005.29 1762.58 3006.28 1757.4 3008.25 1757.4ZM2951.38 1746.83C2958.37 1746.83 2964.41 1748.93 2969.52 1753.12 2974.98 1757.58 2977.72 1763.25 2977.72 1770.12 2977.72 1785.65 2968.94 1793.42 2951.38 1793.42 2943.85 1793.42 2937.63 1791.45 2932.7 1787.53 2927.33 1783.24 2924.64 1777.44 2924.64 1770.12 2924.64 1763.16 2927.42 1757.45 2932.97 1752.99 2938.08 1748.88 2944.21 1746.83 2951.38 1746.83ZM2853.74 1742.95 2901.71 1742.95C2903.95 1742.95 2904.98 1743.88 2904.8 1745.76L2904.67 1748.17C2902.34 1786.72 2901.18 1820.82 2901.18 1850.45 2901.18 1874.82 2901.26 1893.52 2901.44 1906.55 2901.44 1908.6 2901.58 1912.12 2901.85 1917.12 2902.12 1921.67 2902.25 1925.2 2902.25 1927.7 2902.25 1929.57 2901.13 1930.69 2898.89 1931.05 2894.86 1931.76 2887.6 1932.12 2877.12 1932.12 2866.37 1932.12 2859.52 1931.76 2856.56 1931.05 2854.59 1930.6 2853.47 1929.4 2853.2 1927.43 2853.2 1927.16 2853.2 1925.24 2853.2 1921.67 2853.2 1913.73 2853.29 1901.84 2853.47 1886 2853.65 1870.15 2853.74 1858.31 2853.74 1850.45 2853.74 1812.96 2853.78 1795.87 2853.87 1799.17 2853.61 1779.45 2852.49 1762.45 2850.51 1748.17 2850.34 1747.19 2850.25 1746.43 2850.25 1745.89 2850.25 1743.93 2851.41 1742.95 2853.74 1742.95ZM2718.88 1740C2721.3 1740 2725.04 1740.22 2730.1 1740.67 2735.16 1741.12 2738.94 1741.34 2741.45 1741.34 2743.87 1741.34 2747.43 1741.18 2752.14 1740.87 2756.84 1740.56 2760.36 1740.4 2762.68 1740.4 2764.39 1740.4 2765.95 1741.87 2767.39 1744.82 2771.78 1754.19 2784.59 1786.32 2805.82 1841.21 2827.14 1896.46 2837.8 1925.29 2837.8 1927.7 2837.8 1929.31 2836.68 1930.42 2834.44 1931.05 2831.76 1931.76 2823.42 1932.12 2809.45 1932.12 2796.64 1932.12 2788.4 1931.76 2784.72 1931.05 2781.68 1930.42 2779.75 1928.41 2778.94 1925.02 2775.9 1912.17 2773.52 1905.3 2771.82 1904.4 2770.39 1903.78 2758.38 1903.47 2735.81 1903.47 2720.58 1903.47 2712.47 1903.87 2711.49 1904.67 2709.96 1906.1 2708.26 1910.88 2706.38 1919 2704.68 1926.41 2702.62 1930.42 2700.2 1931.05 2697.15 1931.76 2686.94 1932.12 2669.56 1932.12 2655.85 1932.12 2649 1930.82 2649 1928.24 2649 1925.91 2659.12 1897.4 2679.37 1842.69 2701.32 1783.51 2713.23 1750.98 2715.11 1745.09 2716.19 1741.7 2717.44 1740 2718.88 1740Z" fill-rule="evenodd"/><g clip-path="url(#clip2)" filter="url(#fx0)" transform="translate(2194 1650)"><g clip-path="url(#clip3)"><path d="M96.4824 57.3926 351.317 174.695 127.149 343.364Z" stroke="#FFFFFF" stroke-width="5.84375" stroke-linecap="round" stroke-linejoin="round" stroke-miterlimit="10" fill="url(#fill4)" fill-rule="evenodd"/><path d="M109.996 48.7246 352.185 190.305 112.645 336.323Z" stroke="#FFFFFF" stroke-width="5.84375" stroke-linecap="round" stroke-linejoin="round" stroke-miterlimit="10" fill="url(#fill5)" fill-rule="evenodd"/><path d="M124.297 41.4219 351.535 205.932 98.9045 327.91Z" stroke="#FFFFFF" stroke-width="5.84375" stroke-linecap="round" stroke-linejoin="round" stroke-miterlimit="10" fill="url(#fill6)" fill-rule="evenodd"/><path d="M139.252 35.5542 349.374 221.428 86.0586 318.203Z" stroke="#FFFFFF" stroke-width="5.84375" stroke-linecap="round" stroke-linejoin="round" stroke-miterlimit="10" fill="url(#fill7)" fill-rule="evenodd"/><path d="M154.716 31.1776 345.722 236.646 74.2285 307.297Z" stroke="#FFFFFF" stroke-width="5.84375" stroke-linecap="round" stroke-linejoin="round" stroke-miterlimit="10" fill="url(#fill8)" fill-rule="evenodd"/><path d="M170.543 28.3333 340.615 251.439 63.5276 295.293Z" stroke="#FFFFFF" stroke-width="5.84375" stroke-linecap="round" stroke-linejoin="round" stroke-miterlimit="10" fill="url(#fill9)" fill-rule="evenodd"/><path d="M186.582 27.0486 334.1 265.668 54.0579 282.308Z" stroke="#FFFFFF" stroke-width="5.84375" stroke-linecap="round" stroke-linejoin="round" stroke-miterlimit="10" fill="url(#fill10)" fill-rule="evenodd"/><path d="M202.682 27.336 326.241 279.196 45.9099 268.464Z" stroke="#FFFFFF" stroke-width="5.84375" stroke-linecap="round" stroke-linejoin="round" stroke-miterlimit="10" fill="url(#fill11)" fill-rule="evenodd"/><path d="M218.686 29.1921 317.11 291.896 39.1602 253.893Z" stroke="#FFFFFF" stroke-width="5.84375" stroke-linecap="round" stroke-linejoin="round" stroke-miterlimit="10" fill="url(#fill12)" fill-rule="evenodd"/><path d="M234.445 32.5996 306.796 303.645 33.8735 238.734Z" stroke="#FFFFFF" stroke-width="5.84375" stroke-linecap="round" stroke-linejoin="round" stroke-miterlimit="10" fill="url(#fill13)" fill-rule="evenodd"/><path d="M249.807 37.5264 295.398 314.333 30.1002 223.131Z" stroke="#FFFFFF" stroke-width="5.84375" stroke-linecap="round" stroke-linejoin="round" stroke-miterlimit="10" fill="url(#fill14)" fill-rule="evenodd"/><path d="M264.626 43.9249 283.022 323.857 27.8765 207.233Z" stroke="#FFFFFF" stroke-width="5.84375" stroke-linecap="round" stroke-linejoin="round" stroke-miterlimit="10" fill="url(#fill15)" fill-rule="evenodd"/><path d="M278.762 51.7349 269.788 332.127 27.2234 191.191Z" stroke="#FFFFFF" stroke-width="5.84375" stroke-linecap="round" stroke-linejoin="round" stroke-miterlimit="10" fill="url(#fill16)" fill-rule="evenodd"/><path d="M286.915 59.2681 257.224 342.307 30.5034 170.288Z" stroke="#FFFFFF" stroke-width="5.84375" stroke-linecap="round" stroke-linejoin="round" stroke-miterlimit="10" fill="url(#fill17)" fill-rule="evenodd"/><path d="M299.469 69.1686 242.334 347.966 33.4581 154.67Z" stroke="#FFFFFF" stroke-width="5.84375" stroke-linecap="round" stroke-linejoin="round" stroke-miterlimit="10" fill="url(#fill18)" fill-rule="evenodd"/><path d="M311.008 80.24 226.973 352.142 37.9302 139.409Z" stroke="#FFFFFF" stroke-width="5.84375" stroke-linecap="round" stroke-linejoin="round" stroke-miterlimit="10" fill="url(#fill19)" fill-rule="evenodd"/><path d="M321.422 92.3772 211.286 354.794 43.8772 124.649Z" stroke="#FFFFFF" stroke-width="5.84375" stroke-linecap="round" stroke-linejoin="round" stroke-miterlimit="10" fill="url(#fill20)" fill-rule="evenodd"/><path d="M330.61 105.463 195.424 355.897 51.242 110.532Z" stroke="#FFFFFF" stroke-width="5.84375" stroke-linecap="round" stroke-linejoin="round" stroke-miterlimit="10" fill="url(#fill21)" fill-rule="evenodd"/><path d="M338.488 119.375 179.537 355.441 59.9552 97.192Z" stroke="#FFFFFF" stroke-width="5.84375" stroke-linecap="round" stroke-linejoin="round" stroke-miterlimit="10" fill="url(#fill22)" fill-rule="evenodd"/><path d="M344.978 133.98 163.776 353.431 69.9331 84.7563Z" stroke="#FFFFFF" stroke-width="5.84375" stroke-linecap="round" stroke-linejoin="round" stroke-miterlimit="10" fill="url(#fill23)" fill-rule="evenodd"/><path d="M350.019 149.139 148.292 349.884 81.0814 73.3427Z" stroke="#FFFFFF" stroke-width="5.84375" stroke-linecap="round" stroke-linejoin="round" stroke-miterlimit="10" fill="url(#fill24)" fill-rule="evenodd"/><path d="M353.564 164.706 133.232 344.835 93.2936 63.0597Z" stroke="#FFFFFF" stroke-width="5.84375" stroke-linecap="round" stroke-linejoin="round" stroke-miterlimit="10" fill="url(#fill25)" fill-rule="evenodd"/><path d="M355.577 180.535 118.739 338.333 106.453 54.0061Z" stroke="#FFFFFF" stroke-width="5.84375" stroke-linecap="round" stroke-linejoin="round" stroke-miterlimit="10" fill="url(#fill26)" fill-rule="evenodd"/><path d="M356.042 196.474 104.952 330.438 120.435 46.2675Z" stroke="#FFFFFF" stroke-width="5.84375" stroke-linecap="round" stroke-linejoin="round" stroke-miterlimit="10" fill="url(#fill27)" fill-rule="evenodd"/><path d="M354.952 212.372 92.001 321.226 135.106 39.918Z" stroke="#FFFFFF" stroke-width="5.84375" stroke-linecap="round" stroke-linejoin="round" stroke-miterlimit="10" fill="url(#fill28)" fill-rule="evenodd"/><path d="M352.318 228.077 80.0102 310.785 150.327 35.0174Z" stroke="#FFFFFF" stroke-width="5.84375" stroke-linecap="round" stroke-linejoin="round" stroke-miterlimit="10" fill="url(#fill29)" fill-rule="evenodd"/><path d="M348.166 243.44 69.0933 299.215 165.952 31.6133Z" stroke="#FFFFFF" stroke-width="5.84375" stroke-linecap="round" stroke-linejoin="round" stroke-miterlimit="10" fill="url(#fill30)" fill-rule="evenodd"/><path d="M342.535 258.315 59.355 286.625 181.834 29.7373Z" stroke="#FFFFFF" stroke-width="5.84375" stroke-linecap="round" stroke-linejoin="round" stroke-miterlimit="10" fill="url(#fill31)" fill-rule="evenodd"/><path d="M335.478 272.558 50.887 273.135 197.82 29.4072Z" stroke="#FFFFFF" stroke-width="5.84375" stroke-linecap="round" stroke-linejoin="round" stroke-miterlimit="10" fill="url(#fill32)" fill-rule="evenodd"/></g></g><path d="M2292.35 1710.02 2542.19 1825.02 2322.41 1990.39Z" stroke="#FFFFFF" stroke-width="5.72917" stroke-linecap="round" stroke-linejoin="round" stroke-miterlimit="10" fill="url(#fill33)" fill-rule="evenodd"/><path d="M2305.6 1701.52 2543.04 1840.33 2308.19 1983.48Z" stroke="#FFFFFF" stroke-width="5.72917" stroke-linecap="round" stroke-linejoin="round" stroke-miterlimit="10" fill="url(#fill34)" fill-rule="evenodd"/><path d="M2319.62 1694.36 2542.4 1855.65 2294.72 1975.23Z" stroke="#FFFFFF" stroke-width="5.72917" stroke-linecap="round" stroke-linejoin="round" stroke-miterlimit="10" fill="url(#fill35)" fill-rule="evenodd"/><path d="M2334.28 1688.61 2540.28 1870.84 2282.13 1965.72Z" stroke="#FFFFFF" stroke-width="5.72917" stroke-linecap="round" stroke-linejoin="round" stroke-miterlimit="10" fill="url(#fill36)" fill-rule="evenodd"/><path d="M2349.44 1684.32 2536.7 1885.76 2270.53 1955.03Z" stroke="#FFFFFF" stroke-width="5.72917" stroke-linecap="round" stroke-linejoin="round" stroke-miterlimit="10" fill="url(#fill37)" fill-rule="evenodd"/><path d="M2364.96 1681.53 2531.69 1900.26 2260.04 1943.26Z" stroke="#FFFFFF" stroke-width="5.72917" stroke-linecap="round" stroke-linejoin="round" stroke-miterlimit="10" fill="url(#fill38)" fill-rule="evenodd"/><path d="M2380.68 1680.27 2525.31 1914.21 2250.76 1930.53Z" stroke="#FFFFFF" stroke-width="5.72917" stroke-linecap="round" stroke-linejoin="round" stroke-miterlimit="10" fill="url(#fill39)" fill-rule="evenodd"/><path d="M2396.46 1680.55 2517.6 1927.48 2242.77 1916.95Z" stroke="#FFFFFF" stroke-width="5.72917" stroke-linecap="round" stroke-linejoin="round" stroke-miterlimit="10" fill="url(#fill40)" fill-rule="evenodd"/><path d="M2412.16 1682.37 2508.65 1939.93 2236.15 1902.67Z" stroke="#FFFFFF" stroke-width="5.72917" stroke-linecap="round" stroke-linejoin="round" stroke-miterlimit="10" fill="url(#fill41)" fill-rule="evenodd"/><path d="M2427.61 1685.71 2498.54 1951.45 2230.97 1887.81Z" stroke="#FFFFFF" stroke-width="5.72917" stroke-linecap="round" stroke-linejoin="round" stroke-miterlimit="10" fill="url(#fill42)" fill-rule="evenodd"/><path d="M2442.67 1690.54 2487.36 1961.92 2227.27 1872.51Z" stroke="#FFFFFF" stroke-width="5.72917" stroke-linecap="round" stroke-linejoin="round" stroke-miterlimit="10" fill="url(#fill43)" fill-rule="evenodd"/><path d="M2457.2 1696.82 2475.23 1971.26 2225.09 1856.92Z" stroke="#FFFFFF" stroke-width="5.72917" stroke-linecap="round" stroke-linejoin="round" stroke-miterlimit="10" fill="url(#fill44)" fill-rule="evenodd"/><path d="M2471.05 1704.47 2462.26 1979.37 2224.45 1841.2Z" stroke="#FFFFFF" stroke-width="5.72917" stroke-linecap="round" stroke-linejoin="round" stroke-miterlimit="10" fill="url(#fill45)" fill-rule="evenodd"/><path d="M2479.05 1711.86 2449.94 1989.35 2227.66 1820.7Z" stroke="#FFFFFF" stroke-width="5.72917" stroke-linecap="round" stroke-linejoin="round" stroke-miterlimit="10" fill="url(#fill46)" fill-rule="evenodd"/><path d="M2491.35 1721.57 2435.34 1994.9 2230.56 1805.39Z" stroke="#FFFFFF" stroke-width="5.72917" stroke-linecap="round" stroke-linejoin="round" stroke-miterlimit="10" fill="url(#fill47)" fill-rule="evenodd"/><path d="M2502.67 1732.42 2420.28 1998.99 2234.94 1790.43Z" stroke="#FFFFFF" stroke-width="5.72917" stroke-linecap="round" stroke-linejoin="round" stroke-miterlimit="10" fill="url(#fill48)" fill-rule="evenodd"/><path d="M2512.88 1744.32 2404.9 2001.59 2240.77 1775.96Z" stroke="#FFFFFF" stroke-width="5.72917" stroke-linecap="round" stroke-linejoin="round" stroke-miterlimit="10" fill="url(#fill49)" fill-rule="evenodd"/><path d="M2521.89 1757.15 2389.35 2002.67 2247.99 1762.12Z" stroke="#FFFFFF" stroke-width="5.72917" stroke-linecap="round" stroke-linejoin="round" stroke-miterlimit="10" fill="url(#fill50)" fill-rule="evenodd"/><path d="M2529.61 1770.79 2373.77 2002.23 2256.54 1749.04Z" stroke="#FFFFFF" stroke-width="5.72917" stroke-linecap="round" stroke-linejoin="round" stroke-miterlimit="10" fill="url(#fill51)" fill-rule="evenodd"/><path d="M2535.97 1785.11 2358.32 2000.26 2266.32 1736.85Z" stroke="#FFFFFF" stroke-width="5.72917" stroke-linecap="round" stroke-linejoin="round" stroke-miterlimit="10" fill="url(#fill52)" fill-rule="evenodd"/><path d="M2540.91 1799.97 2343.14 1996.78 2277.25 1725.66Z" stroke="#FFFFFF" stroke-width="5.72917" stroke-linecap="round" stroke-linejoin="round" stroke-miterlimit="10" fill="url(#fill53)" fill-rule="evenodd"/><path d="M2544.39 1815.23 2328.38 1991.83 2289.22 1715.58Z" stroke="#FFFFFF" stroke-width="5.72917" stroke-linecap="round" stroke-linejoin="round" stroke-miterlimit="10" fill="url(#fill54)" fill-rule="evenodd"/><path d="M2546.36 1830.75 2314.17 1985.45 2302.12 1706.7Z" stroke="#FFFFFF" stroke-width="5.72917" stroke-linecap="round" stroke-linejoin="round" stroke-miterlimit="10" fill="url(#fill55)" fill-rule="evenodd"/><path d="M2546.82 1846.38 2300.65 1977.71 2315.83 1699.11Z" stroke="#FFFFFF" stroke-width="5.72917" stroke-linecap="round" stroke-linejoin="round" stroke-miterlimit="10" fill="url(#fill56)" fill-rule="evenodd"/><path d="M2545.75 1861.96 2287.95 1968.68 2330.21 1692.89Z" stroke="#FFFFFF" stroke-width="5.72917" stroke-linecap="round" stroke-linejoin="round" stroke-miterlimit="10" fill="url(#fill57)" fill-rule="evenodd"/><path d="M2543.17 1877.36 2276.2 1958.45 2345.14 1688.09Z" stroke="#FFFFFF" stroke-width="5.72917" stroke-linecap="round" stroke-linejoin="round" stroke-miterlimit="10" fill="url(#fill58)" fill-rule="evenodd"/><path d="M2539.1 1892.42 2265.5 1947.1 2360.46 1684.75Z" stroke="#FFFFFF" stroke-width="5.72917" stroke-linecap="round" stroke-linejoin="round" stroke-miterlimit="10" fill="url(#fill59)" fill-rule="evenodd"/><path d="M2533.58 1907 2255.95 1934.76 2376.03 1682.91Z" stroke="#FFFFFF" stroke-width="5.72917" stroke-linecap="round" stroke-linejoin="round" stroke-miterlimit="10" fill="url(#fill60)" fill-rule="evenodd"/><path d="M2526.66 1920.97 2247.65 1921.53 2391.7 1682.58Z" stroke="#FFFFFF" stroke-width="5.72917" stroke-linecap="round" stroke-linejoin="round" stroke-miterlimit="10" fill="url(#fill61)" fill-rule="evenodd"/></g></svg>